# xmcd
#
# Track frame offsets:
#	150
#	12567
#	24105
#	36850
#
# Disc length: 684 seconds
#
# Revision: 3
# Processed by: cddbd v1.4b41PL2 Copyright (c) Steve Scherf et al.
# Submitted via: audiograbber 1.80
#
DISCID=2402aa04
DTITLE=Tubby Gold - My Golden Danish Collection
DYEAR=1900
DGENRE=
TTITLE0=Have You Ever Been Told
TTITLE1=Denmark, My Golden State Of Mind
TTITLE2=Give Me The Gold
TTITLE3=Toastin' With Gold (feat. Gold Dick Azz)
EXTD=Merchandise/promotion CD for the danish beer Tuborg.
EXTT0=
EXTT1=
EXTT2=
EXTT3=
PLAYORDER=
